<?xml version="1.0" encoding="UTF-8" standalone="no" ?>
<!DOCTYPE svg PUBLIC "-//W3C//DTD SVG 1.1//EN" "http://www.w3.org/Graphics/SVG/1.1/DTD/svg11.dtd">
<svg xmlns="http://www.w3.org/2000/svg" xmlns:xlink="http://www.w3.org/1999/xlink" version="1.1" width="900" height="1080" viewBox="0 132.41 900 1080" xml:space="preserve">
<desc>Created with Fabric.js 5.2.4</desc>
<defs>
</defs>
<rect x="0" y="0" width="100%" height="100%" fill="transparent"></rect>
<g transform="matrix(1 0 0 1 450 540)" id="2ce2b264-b18f-402c-a83e-d24de8931b6c"  >
<rect style="stroke: none; stroke-width: 1; stroke-dasharray: none; stroke-linecap: butt; stroke-dashoffset: 0; stroke-linejoin: miter; stroke-miterlimit: 4; fill: rgb(255,255,255); fill-rule: nonzero; opacity: 1; visibility: hidden;" vector-effect="non-scaling-stroke"  x="-450" y="-540" rx="0" ry="0" width="900" height="1080" />
</g>
<g transform="matrix(0 0 0 0 0 0)" id="47c59250-d0f7-4b6d-821e-5d62d1ab284e"  >
</g>
<g transform="matrix(3.65 0 0 3.65 496.21 670.85)"  >
<path style="stroke: none; stroke-width: 1; stroke-dasharray: none; stroke-linecap: butt; stroke-dashoffset: 0; stroke-linejoin: miter; stroke-miterlimit: 4; fill: rgb(255,0,79); fill-rule: nonzero; opacity: 1;" vector-effect="non-scaling-stroke"  transform=" translate(-148.55, -151.52)" d="M 191.102 105.182 C 209.916 118.624 232.964 126.533 257.85699999999997 126.533 L 257.85699999999997 78.656 C 253.14599999999996 78.65700000000001 248.44699999999997 78.16600000000001 243.83799999999997 77.19000000000001 L 243.83799999999997 114.876 C 218.94699999999997 114.876 195.90199999999996 106.967 177.08299999999997 93.52600000000001 L 177.08299999999997 191.229 C 177.08299999999997 240.10500000000002 137.44099999999997 279.72400000000005 88.54299999999996 279.72400000000005 C 70.29799999999996 279.72400000000005 53.33999999999996 274.21100000000007 39.252999999999965 264.75600000000003 C 55.33099999999996 281.187 77.75299999999996 291.38000000000005 102.55899999999997 291.38000000000005 C 151.45999999999998 291.38000000000005 191.10399999999998 251.76100000000005 191.10399999999998 202.88300000000004 L 191.10399999999998 105.18200000000004 L 191.102 105.18200000000004 z M 208.396 56.88 C 198.78099999999998 46.381 192.468 32.813 191.10199999999998 17.813000000000002 L 191.10199999999998 11.655000000000001 L 177.81699999999998 11.655000000000001 C 181.161 30.72 192.567 47.008 208.396 56.88 L 208.396 56.88 z M 70.181 227.25 C 64.809 220.21 61.906 211.598 61.919 202.743 C 61.919 180.389 80.051 162.264 102.42099999999999 162.264 C 106.58999999999999 162.263 110.734 162.901 114.707 164.161 L 114.707 115.214 C 110.064 114.578 105.37799999999999 114.30799999999999 100.69399999999999 114.407 L 100.69399999999999 152.505 C 96.71799999999999 151.245 92.57199999999999 150.605 88.40199999999999 150.609 C 66.03199999999998 150.609 47.90099999999999 168.732 47.90099999999999 191.089 C 47.901 206.897 56.964 220.583 70.181 227.25 z" stroke-linecap="round" />
</g>
<g transform="matrix(3.65 0 0 3.65 424.45 649.55)"  >
<path style="stroke: none; stroke-width: 1; stroke-dasharray: none; stroke-linecap: butt; stroke-dashoffset: 0; stroke-linejoin: miter; stroke-miterlimit: 4; fill: rgb(255,255,255); fill-rule: nonzero; opacity: 1;" vector-effect="non-scaling-stroke"  transform=" translate(-128.93, -145.69)" d="M 177.083 93.525 C 195.902 106.96600000000001 218.947 114.875 243.838 114.875 L 243.838 77.189 C 229.944 74.231 217.644 66.97399999999999 208.396 56.879999999999995 C 192.56599999999997 47.007 181.161 30.718999999999994 177.81699999999998 11.654999999999994 L 142.921 11.654999999999994 L 142.921 202.881 C 142.84199999999998 225.174 124.74099999999999 243.225 102.41899999999998 243.225 C 89.26499999999999 243.225 77.57899999999998 236.958 70.17799999999998 227.25 C 56.96199999999998 220.583 47.89899999999999 206.89600000000002 47.89899999999999 191.09 C 47.89899999999999 168.735 66.02999999999999 150.61 88.39999999999998 150.61 C 92.68599999999998 150.61 96.81699999999998 151.27700000000002 100.69199999999998 152.506 L 100.69199999999998 114.408 C 52.65299999999998 115.4 14.017999999999972 154.632 14.017999999999972 202.882 C 14.017999999999972 226.96800000000002 23.638999999999974 248.803 39.25399999999998 264.757 C 53.34099999999998 274.211 70.29899999999998 279.725 88.54399999999998 279.725 C 137.44299999999998 279.725 177.084 240.104 177.084 191.22900000000004 L 177.084 93.525 L 177.083 93.525 z" stroke-linecap="round" />
</g>
</svg>